<?xml version="1.0" encoding="UTF-8" standalone="no"?>
<!DOCTYPE svg PUBLIC "-//W3C//DTD SVG 1.1//EN" "http://www.w3.org/Graphics/SVG/1.1/DTD/svg11.dtd">
<!-- Generated by graphviz version 2.40.1 (20161225.0304)
 -->
<!-- Title: %0 Pages: 1 -->
<svg width="1529pt" height="548pt" viewBox="0.00 0.00 1529.15 548.00" xmlns="http://www.w3.org/2000/svg" xmlns:xlink="http://www.w3.org/1999/xlink">
<g id="graph0" class="graph" transform="scale(1 1) rotate(0) translate(4 544)">
<title>%0</title>
<polygon fill="#ffffff" stroke="transparent" points="-4,4 -4,-544 1525.1476,-544 1525.1476,4 -4,4"/>
<!-- [root] aws_instance.my&#45;ec2&#45;vm (expand) -->
<g id="node1" class="node">
<title>[root] aws_instance.my-ec2-vm (expand)</title>
<polygon fill="none" stroke="#000000" points="480.9303,-324 322.5956,-324 322.5956,-288 480.9303,-288 480.9303,-324"/>
<text text-anchor="middle" x="401.7629" y="-301.8" font-family="Times,serif" font-size="14.00" fill="#000000">aws_instance.my-ec2-vm</text>
</g>
<!-- [root] aws_security_group.vpc&#45;tf&#45;ssh (expand) -->
<g id="node7" class="node">
<title>[root] aws_security_group.vpc-tf-ssh (expand)</title>
<polygon fill="none" stroke="#000000" points="362.9813,-252 174.5446,-252 174.5446,-216 362.9813,-216 362.9813,-252"/>
<text text-anchor="middle" x="268.7629" y="-229.8" font-family="Times,serif" font-size="14.00" fill="#000000">aws_security_group.vpc-tf-ssh</text>
</g>
<!-- [root] aws_instance.my&#45;ec2&#45;vm (expand)&#45;&gt;[root] aws_security_group.vpc&#45;tf&#45;ssh (expand) -->
<g id="edge1" class="edge">
<title>[root] aws_instance.my-ec2-vm (expand)-&gt;[root] aws_security_group.vpc-tf-ssh (expand)</title>
<path fill="none" stroke="#000000" d="M368.2014,-287.8314C350.8749,-278.4516 329.5572,-266.9112 311.1093,-256.9244"/>
<polygon fill="#000000" stroke="#000000" points="312.7741,-253.8457 302.3137,-252.1628 309.4415,-260.0015 312.7741,-253.8457"/>
</g>
<!-- [root] aws_security_group.vpc&#45;tf&#45;web (expand) -->
<g id="node8" class="node">
<title>[root] aws_security_group.vpc-tf-web (expand)</title>
<polygon fill="none" stroke="#000000" points="574.4134,-252 381.1124,-252 381.1124,-216 574.4134,-216 574.4134,-252"/>
<text text-anchor="middle" x="477.7629" y="-229.8" font-family="Times,serif" font-size="14.00" fill="#000000">aws_security_group.vpc-tf-web</text>
</g>
<!-- [root] aws_instance.my&#45;ec2&#45;vm (expand)&#45;&gt;[root] aws_security_group.vpc&#45;tf&#45;web (expand) -->
<g id="edge2" class="edge">
<title>[root] aws_instance.my-ec2-vm (expand)-&gt;[root] aws_security_group.vpc-tf-web (expand)</title>
<path fill="none" stroke="#000000" d="M420.9409,-287.8314C430.1218,-279.1337 441.2636,-268.5783 451.2405,-259.1265"/>
<polygon fill="#000000" stroke="#000000" points="453.7386,-261.5811 458.5911,-252.1628 448.9244,-256.4995 453.7386,-261.5811"/>
</g>
<!-- [root] aws_subnet.vpc&#45;tf&#45;public&#45;subnet&#45;1 (expand) -->
<g id="node9" class="node">
<title>[root] aws_subnet.vpc-tf-public-subnet-1 (expand)</title>
<polygon fill="none" stroke="#000000" points="803.0325,-252 592.4934,-252 592.4934,-216 803.0325,-216 803.0325,-252"/>
<text text-anchor="middle" x="697.7629" y="-229.8" font-family="Times,serif" font-size="14.00" fill="#000000">aws_subnet.vpc-tf-public-subnet-1</text>
</g>
<!-- [root] aws_instance.my&#45;ec2&#45;vm (expand)&#45;&gt;[root] aws_subnet.vpc&#45;tf&#45;public&#45;subnet&#45;1 (expand) -->
<g id="edge3" class="edge">
<title>[root] aws_instance.my-ec2-vm (expand)-&gt;[root] aws_subnet.vpc-tf-public-subnet-1 (expand)</title>
<path fill="none" stroke="#000000" d="M476.0742,-287.9243C517.938,-277.7412 570.3628,-264.9892 613.7203,-254.4428"/>
<polygon fill="#000000" stroke="#000000" points="614.7885,-257.7851 623.6779,-252.0207 613.134,-250.9834 614.7885,-257.7851"/>
</g>
<!-- [root] data.aws_ami.amzlinux (expand) -->
<g id="node12" class="node">
<title>[root] data.aws_ami.amzlinux (expand)</title>
<polygon fill="none" stroke="#000000" points="345.9454,-180 197.5804,-180 197.5804,-144 345.9454,-144 345.9454,-180"/>
<text text-anchor="middle" x="271.7629" y="-157.8" font-family="Times,serif" font-size="14.00" fill="#000000">data.aws_ami.amzlinux</text>
</g>
<!-- [root] aws_instance.my&#45;ec2&#45;vm (expand)&#45;&gt;[root] data.aws_ami.amzlinux (expand) -->
<g id="edge4" class="edge">
<title>[root] aws_instance.my-ec2-vm (expand)-&gt;[root] data.aws_ami.amzlinux (expand)</title>
<path fill="none" stroke="#000000" d="M322.24,-300.6363C213.1256,-292.455 28.101,-275.3156 7.7629,-252 -2.7546,-239.9426 -2.3538,-228.3956 7.7629,-216 30.2014,-188.5072 118.7626,-174.6352 187.194,-167.8956"/>
<polygon fill="#000000" stroke="#000000" points="187.9368,-171.3409 197.562,-166.9131 187.2764,-164.3722 187.9368,-171.3409"/>
</g>
<!-- [root] var.ec2_instance_type -->
<g id="node17" class="node">
<title>[root] var.ec2_instance_type</title>
<polygon fill="none" stroke="#000000" points="151.0423,-252 16.4836,-252 16.4836,-216 157.0423,-216 157.0423,-246 151.0423,-252"/>
<polyline fill="none" stroke="#000000" points="151.0423,-252 151.0423,-246 "/>
<polyline fill="none" stroke="#000000" points="157.0423,-246 151.0423,-246 "/>
<text text-anchor="middle" x="86.7629" y="-229.8" font-family="Times,serif" font-size="14.00" fill="#000000">var.ec2_instance_type</text>
</g>
<!-- [root] aws_instance.my&#45;ec2&#45;vm (expand)&#45;&gt;[root] var.ec2_instance_type -->
<g id="edge5" class="edge">
<title>[root] aws_instance.my-ec2-vm (expand)-&gt;[root] var.ec2_instance_type</title>
<path fill="none" stroke="#000000" d="M322.6817,-287.9243C275.2121,-277.0741 214.9828,-263.3074 167.2622,-252.3998"/>
<polygon fill="#000000" stroke="#000000" points="167.8066,-248.9341 157.2781,-250.1178 166.2468,-255.7581 167.8066,-248.9341"/>
</g>
<!-- [root] aws_internet_gateway.vpc&#45;tf&#45;igw (expand) -->
<g id="node2" class="node">
<title>[root] aws_internet_gateway.vpc-tf-igw (expand)</title>
<polygon fill="none" stroke="#000000" points="1024.5157,-252 821.0102,-252 821.0102,-216 1024.5157,-216 1024.5157,-252"/>
<text text-anchor="middle" x="922.7629" y="-229.8" font-family="Times,serif" font-size="14.00" fill="#000000">aws_internet_gateway.vpc-tf-igw</text>
</g>
<!-- [root] aws_vpc.vpc&#45;tf (expand) -->
<g id="node11" class="node">
<title>[root] aws_vpc.vpc-tf (expand)</title>
<polygon fill="none" stroke="#000000" points="748.6698,-180 646.8561,-180 646.8561,-144 748.6698,-144 748.6698,-180"/>
<text text-anchor="middle" x="697.7629" y="-157.8" font-family="Times,serif" font-size="14.00" fill="#000000">aws_vpc.vpc-tf</text>
</g>
<!-- [root] aws_internet_gateway.vpc&#45;tf&#45;igw (expand)&#45;&gt;[root] aws_vpc.vpc&#45;tf (expand) -->
<g id="edge6" class="edge">
<title>[root] aws_internet_gateway.vpc-tf-igw (expand)-&gt;[root] aws_vpc.vpc-tf (expand)</title>
<path fill="none" stroke="#000000" d="M866.2764,-215.9243C833.4576,-205.4223 792.1005,-192.188 758.5712,-181.4587"/>
<polygon fill="#000000" stroke="#000000" points="759.4775,-178.0739 748.8865,-178.3595 757.344,-184.7409 759.4775,-178.0739"/>
</g>
<!-- [root] aws_route.vpc&#45;tf&#45;public&#45;route (expand) -->
<g id="node3" class="node">
<title>[root] aws_route.vpc-tf-public-route (expand)</title>
<polygon fill="none" stroke="#000000" points="1097.3043,-324 914.2216,-324 914.2216,-288 1097.3043,-288 1097.3043,-324"/>
<text text-anchor="middle" x="1005.7629" y="-301.8" font-family="Times,serif" font-size="14.00" fill="#000000">aws_route.vpc-tf-public-route</text>
</g>
<!-- [root] aws_route.vpc&#45;tf&#45;public&#45;route (expand)&#45;&gt;[root] aws_internet_gateway.vpc&#45;tf&#45;igw (expand) -->
<g id="edge7" class="edge">
<title>[root] aws_route.vpc-tf-public-route (expand)-&gt;[root] aws_internet_gateway.vpc-tf-igw (expand)</title>
<path fill="none" stroke="#000000" d="M984.8185,-287.8314C974.6938,-279.0485 962.3853,-268.3712 951.4081,-258.8489"/>
<polygon fill="#000000" stroke="#000000" points="953.548,-256.0718 943.7006,-252.1628 948.9611,-261.3595 953.548,-256.0718"/>
</g>
<!-- [root] aws_route_table.vpc&#45;tf&#45;public&#45;route&#45;table (expand) -->
<g id="node4" class="node">
<title>[root] aws_route_table.vpc-tf-public-route-table (expand)</title>
<polygon fill="none" stroke="#000000" points="1292.3854,-252 1043.1404,-252 1043.1404,-216 1292.3854,-216 1292.3854,-252"/>
<text text-anchor="middle" x="1167.7629" y="-229.8" font-family="Times,serif" font-size="14.00" fill="#000000">aws_route_table.vpc-tf-public-route-table</text>
</g>
<!-- [root] aws_route.vpc&#45;tf&#45;public&#45;route (expand)&#45;&gt;[root] aws_route_table.vpc&#45;tf&#45;public&#45;route&#45;table (expand) -->
<g id="edge8" class="edge">
<title>[root] aws_route.vpc-tf-public-route (expand)-&gt;[root] aws_route_table.vpc-tf-public-route-table (expand)</title>
<path fill="none" stroke="#000000" d="M1046.6424,-287.8314C1068.3089,-278.2018 1095.0993,-266.295 1117.9707,-256.1299"/>
<polygon fill="#000000" stroke="#000000" points="1119.4608,-259.2978 1127.1775,-252.038 1116.6178,-252.9011 1119.4608,-259.2978"/>
</g>
<!-- [root] aws_route_table.vpc&#45;tf&#45;public&#45;route&#45;table (expand)&#45;&gt;[root] aws_vpc.vpc&#45;tf (expand) -->
<g id="edge9" class="edge">
<title>[root] aws_route_table.vpc-tf-public-route-table (expand)-&gt;[root] aws_vpc.vpc-tf (expand)</title>
<path fill="none" stroke="#000000" d="M1050.0717,-215.9707C957.4909,-201.7881 832.2398,-182.6007 758.7135,-171.3371"/>
<polygon fill="#000000" stroke="#000000" points="759.1054,-167.8564 748.6907,-169.8017 758.0454,-174.7757 759.1054,-167.8564"/>
</g>
<!-- [root] aws_route_table_association.vpc&#45;tf&#45;public&#45;route&#45;table&#45;association&#45;1 (expand) -->
<g id="node5" class="node">
<title>[root] aws_route_table_association.vpc-tf-public-route-table-association-1 (expand)</title>
<polygon fill="none" stroke="#000000" points="896.6161,-324 498.9098,-324 498.9098,-288 896.6161,-288 896.6161,-324"/>
<text text-anchor="middle" x="697.7629" y="-301.8" font-family="Times,serif" font-size="14.00" fill="#000000">aws_route_table_association.vpc-tf-public-route-table-association-1</text>
</g>
<!-- [root] aws_route_table_association.vpc&#45;tf&#45;public&#45;route&#45;table&#45;association&#45;1 (expand)&#45;&gt;[root] aws_route_table.vpc&#45;tf&#45;public&#45;route&#45;table (expand) -->
<g id="edge10" class="edge">
<title>[root] aws_route_table_association.vpc-tf-public-route-table-association-1 (expand)-&gt;[root] aws_route_table.vpc-tf-public-route-table (expand)</title>
<path fill="none" stroke="#000000" d="M815.4541,-287.9707C883.7435,-277.5094 969.8082,-264.325 1039.7783,-253.6062"/>
<polygon fill="#000000" stroke="#000000" points="1040.6262,-257.0172 1049.9809,-252.0432 1039.5662,-250.0979 1040.6262,-257.0172"/>
</g>
<!-- [root] aws_route_table_association.vpc&#45;tf&#45;public&#45;route&#45;table&#45;association&#45;1 (expand)&#45;&gt;[root] aws_subnet.vpc&#45;tf&#45;public&#45;subnet&#45;1 (expand) -->
<g id="edge11" class="edge">
<title>[root] aws_route_table_association.vpc-tf-public-route-table-association-1 (expand)-&gt;[root] aws_subnet.vpc-tf-public-subnet-1 (expand)</title>
<path fill="none" stroke="#000000" d="M697.7629,-287.8314C697.7629,-280.131 697.7629,-270.9743 697.7629,-262.4166"/>
<polygon fill="#000000" stroke="#000000" points="701.263,-262.4132 697.7629,-252.4133 694.263,-262.4133 701.263,-262.4132"/>
</g>
<!-- [root] aws_route_table_association.vpc&#45;tf&#45;public&#45;route&#45;table&#45;association&#45;2 (expand) -->
<g id="node6" class="node">
<title>[root] aws_route_table_association.vpc-tf-public-route-table-association-2 (expand)</title>
<polygon fill="none" stroke="#000000" points="1512.6161,-324 1114.9098,-324 1114.9098,-288 1512.6161,-288 1512.6161,-324"/>
<text text-anchor="middle" x="1313.7629" y="-301.8" font-family="Times,serif" font-size="14.00" fill="#000000">aws_route_table_association.vpc-tf-public-route-table-association-2</text>
</g>
<!-- [root] aws_route_table_association.vpc&#45;tf&#45;public&#45;route&#45;table&#45;association&#45;2 (expand)&#45;&gt;[root] aws_route_table.vpc&#45;tf&#45;public&#45;route&#45;table (expand) -->
<g id="edge12" class="edge">
<title>[root] aws_route_table_association.vpc-tf-public-route-table-association-2 (expand)-&gt;[root] aws_route_table.vpc-tf-public-route-table (expand)</title>
<path fill="none" stroke="#000000" d="M1276.921,-287.8314C1257.6547,-278.3302 1233.893,-266.6121 1213.4638,-256.5374"/>
<polygon fill="#000000" stroke="#000000" points="1214.8567,-253.3219 1204.34,-252.038 1211.7606,-259.6 1214.8567,-253.3219"/>
</g>
<!-- [root] aws_subnet.vpc&#45;tf&#45;public&#45;subnet&#45;2 (expand) -->
<g id="node10" class="node">
<title>[root] aws_subnet.vpc-tf-public-subnet-2 (expand)</title>
<polygon fill="none" stroke="#000000" points="1521.0325,-252 1310.4934,-252 1310.4934,-216 1521.0325,-216 1521.0325,-252"/>
<text text-anchor="middle" x="1415.7629" y="-229.8" font-family="Times,serif" font-size="14.00" fill="#000000">aws_subnet.vpc-tf-public-subnet-2</text>
</g>
<!-- [root] aws_route_table_association.vpc&#45;tf&#45;public&#45;route&#45;table&#45;association&#45;2 (expand)&#45;&gt;[root] aws_subnet.vpc&#45;tf&#45;public&#45;subnet&#45;2 (expand) -->
<g id="edge13" class="edge">
<title>[root] aws_route_table_association.vpc-tf-public-route-table-association-2 (expand)-&gt;[root] aws_subnet.vpc-tf-public-subnet-2 (expand)</title>
<path fill="none" stroke="#000000" d="M1339.5018,-287.8314C1352.3067,-278.7927 1367.9538,-267.7476 1381.7349,-258.0198"/>
<polygon fill="#000000" stroke="#000000" points="1383.881,-260.7891 1390.0323,-252.1628 1379.8442,-255.0703 1383.881,-260.7891"/>
</g>
<!-- [root] aws_security_group.vpc&#45;tf&#45;ssh (expand)&#45;&gt;[root] aws_vpc.vpc&#45;tf (expand) -->
<g id="edge14" class="edge">
<title>[root] aws_security_group.vpc-tf-ssh (expand)-&gt;[root] aws_vpc.vpc-tf (expand)</title>
<path fill="none" stroke="#000000" d="M363.0565,-217.4871C365.9919,-216.984 368.8996,-216.4873 371.7629,-216 463.9638,-200.3077 570.9421,-182.7022 636.4842,-171.9844"/>
<polygon fill="#000000" stroke="#000000" points="637.3344,-175.3919 646.6389,-170.3247 636.2053,-168.4836 637.3344,-175.3919"/>
</g>
<!-- [root] aws_security_group.vpc&#45;tf&#45;web (expand)&#45;&gt;[root] aws_vpc.vpc&#45;tf (expand) -->
<g id="edge15" class="edge">
<title>[root] aws_security_group.vpc-tf-web (expand)-&gt;[root] aws_vpc.vpc-tf (expand)</title>
<path fill="none" stroke="#000000" d="M532.9943,-215.9243C564.5999,-205.5806 604.3044,-192.5864 636.818,-181.9456"/>
<polygon fill="#000000" stroke="#000000" points="638.2454,-185.1612 646.6607,-178.7244 636.0681,-178.5084 638.2454,-185.1612"/>
</g>
<!-- [root] aws_subnet.vpc&#45;tf&#45;public&#45;subnet&#45;1 (expand)&#45;&gt;[root] aws_vpc.vpc&#45;tf (expand) -->
<g id="edge16" class="edge">
<title>[root] aws_subnet.vpc-tf-public-subnet-1 (expand)-&gt;[root] aws_vpc.vpc-tf (expand)</title>
<path fill="none" stroke="#000000" d="M697.7629,-215.8314C697.7629,-208.131 697.7629,-198.9743 697.7629,-190.4166"/>
<polygon fill="#000000" stroke="#000000" points="701.263,-190.4132 697.7629,-180.4133 694.263,-190.4133 701.263,-190.4132"/>
</g>
<!-- [root] aws_subnet.vpc&#45;tf&#45;public&#45;subnet&#45;2 (expand)&#45;&gt;[root] aws_vpc.vpc&#45;tf (expand) -->
<g id="edge17" class="edge">
<title>[root] aws_subnet.vpc-tf-public-subnet-2 (expand)-&gt;[root] aws_vpc.vpc-tf (expand)</title>
<path fill="none" stroke="#000000" d="M1310.212,-217.0774C1307.3674,-216.7039 1304.5469,-216.3438 1301.7629,-216 1103.8773,-191.5598 868.208,-173.7267 758.9661,-166.1012"/>
<polygon fill="#000000" stroke="#000000" points="759.0128,-162.5961 748.7944,-165.3952 758.5281,-169.5793 759.0128,-162.5961"/>
</g>
<!-- [root] provider[&quot;registry.terraform.io/hashicorp/aws&quot;] -->
<g id="node15" class="node">
<title>[root] provider["registry.terraform.io/hashicorp/aws"]</title>
<polygon fill="none" stroke="#000000" points="342.7629,-108 67.7725,-90 342.7629,-72 617.7534,-90 342.7629,-108"/>
<text text-anchor="middle" x="342.7629" y="-85.8" font-family="Times,serif" font-size="14.00" fill="#000000">provider["registry.terraform.io/hashicorp/aws"]</text>
</g>
<!-- [root] aws_vpc.vpc&#45;tf (expand)&#45;&gt;[root] provider[&quot;registry.terraform.io/hashicorp/aws&quot;] -->
<g id="edge18" class="edge">
<title>[root] aws_vpc.vpc-tf (expand)-&gt;[root] provider["registry.terraform.io/hashicorp/aws"]</title>
<path fill="none" stroke="#000000" d="M646.522,-151.6075C587.1346,-139.5627 488.6511,-119.5886 419.9771,-105.6603"/>
<polygon fill="#000000" stroke="#000000" points="420.5656,-102.2085 410.0694,-103.6509 419.1741,-109.0688 420.5656,-102.2085"/>
</g>
<!-- [root] data.aws_ami.amzlinux (expand)&#45;&gt;[root] provider[&quot;registry.terraform.io/hashicorp/aws&quot;] -->
<g id="edge19" class="edge">
<title>[root] data.aws_ami.amzlinux (expand)-&gt;[root] provider["registry.terraform.io/hashicorp/aws"]</title>
<path fill="none" stroke="#000000" d="M289.6792,-143.8314C298.5834,-134.8018 309.4621,-123.7699 319.0477,-114.0492"/>
<polygon fill="#000000" stroke="#000000" points="321.5424,-116.5042 326.0717,-106.9263 316.5581,-111.5891 321.5424,-116.5042"/>
</g>
<!-- [root] output.ec2_instance_publicip -->
<g id="node13" class="node">
<title>[root] output.ec2_instance_publicip</title>
<polygon fill="none" stroke="#000000" points="662.2299,-396 487.2959,-396 487.2959,-360 668.2299,-360 668.2299,-390 662.2299,-396"/>
<polyline fill="none" stroke="#000000" points="662.2299,-396 662.2299,-390 "/>
<polyline fill="none" stroke="#000000" points="668.2299,-390 662.2299,-390 "/>
<text text-anchor="middle" x="577.7629" y="-373.8" font-family="Times,serif" font-size="14.00" fill="#000000">output.ec2_instance_publicip</text>
</g>
<!-- [root] output.ec2_instance_publicip&#45;&gt;[root] aws_instance.my&#45;ec2&#45;vm (expand) -->
<g id="edge25" class="edge">
<title>[root] output.ec2_instance_publicip-&gt;[root] aws_instance.my-ec2-vm (expand)</title>
<path fill="none" stroke="#000000" d="M533.3507,-359.8314C509.6025,-350.1162 480.1883,-338.0831 455.1966,-327.8592"/>
<polygon fill="#000000" stroke="#000000" points="456.4365,-324.585 445.8558,-324.038 453.786,-331.0638 456.4365,-324.585"/>
</g>
<!-- [root] output.ec2_publicdns -->
<g id="node14" class="node">
<title>[root] output.ec2_publicdns</title>
<polygon fill="none" stroke="#000000" points="463.9138,-396 333.612,-396 333.612,-360 469.9138,-360 469.9138,-390 463.9138,-396"/>
<polyline fill="none" stroke="#000000" points="463.9138,-396 463.9138,-390 "/>
<polyline fill="none" stroke="#000000" points="469.9138,-390 463.9138,-390 "/>
<text text-anchor="middle" x="401.7629" y="-373.8" font-family="Times,serif" font-size="14.00" fill="#000000">output.ec2_publicdns</text>
</g>
<!-- [root] output.ec2_publicdns&#45;&gt;[root] aws_instance.my&#45;ec2&#45;vm (expand) -->
<g id="edge26" class="edge">
<title>[root] output.ec2_publicdns-&gt;[root] aws_instance.my-ec2-vm (expand)</title>
<path fill="none" stroke="#000000" d="M401.7629,-359.8314C401.7629,-352.131 401.7629,-342.9743 401.7629,-334.4166"/>
<polygon fill="#000000" stroke="#000000" points="405.263,-334.4132 401.7629,-324.4133 398.263,-334.4133 405.263,-334.4132"/>
</g>
<!-- [root] var.aws_region -->
<g id="node16" class="node">
<title>[root] var.aws_region</title>
<polygon fill="none" stroke="#000000" points="387.6698,-36 291.8561,-36 291.8561,0 393.6698,0 393.6698,-30 387.6698,-36"/>
<polyline fill="none" stroke="#000000" points="387.6698,-36 387.6698,-30 "/>
<polyline fill="none" stroke="#000000" points="393.6698,-30 387.6698,-30 "/>
<text text-anchor="middle" x="342.7629" y="-13.8" font-family="Times,serif" font-size="14.00" fill="#000000">var.aws_region</text>
</g>
<!-- [root] provider[&quot;registry.terraform.io/hashicorp/aws&quot;]&#45;&gt;[root] var.aws_region -->
<g id="edge31" class="edge">
<title>[root] provider["registry.terraform.io/hashicorp/aws"]-&gt;[root] var.aws_region</title>
<path fill="none" stroke="#000000" d="M342.7629,-71.8314C342.7629,-64.131 342.7629,-54.9743 342.7629,-46.4166"/>
<polygon fill="#000000" stroke="#000000" points="346.263,-46.4132 342.7629,-36.4133 339.263,-46.4133 346.263,-46.4132"/>
</g>
<!-- [root] meta.count&#45;boundary (EachMode fixup) -->
<g id="node18" class="node">
<title>[root] meta.count-boundary (EachMode fixup)</title>
<ellipse fill="none" stroke="#000000" cx="714.7629" cy="-450" rx="191.4666" ry="18"/>
<text text-anchor="middle" x="714.7629" y="-445.8" font-family="Times,serif" font-size="14.00" fill="#000000">[root] meta.count-boundary (EachMode fixup)</text>
</g>
<!-- [root] meta.count&#45;boundary (EachMode fixup)&#45;&gt;[root] aws_route.vpc&#45;tf&#45;public&#45;route (expand) -->
<g id="edge20" class="edge">
<title>[root] meta.count-boundary (EachMode fixup)-&gt;[root] aws_route.vpc-tf-public-route (expand)</title>
<path fill="none" stroke="#000000" d="M717.3614,-431.8428C721.2991,-411.2411 730.8013,-378.1546 752.7629,-360 758.9287,-354.9031 836.6137,-338.7502 904.2911,-325.4281"/>
<polygon fill="#000000" stroke="#000000" points="905.0552,-328.845 914.194,-323.4847 903.7071,-321.976 905.0552,-328.845"/>
</g>
<!-- [root] meta.count&#45;boundary (EachMode fixup)&#45;&gt;[root] aws_route_table_association.vpc&#45;tf&#45;public&#45;route&#45;table&#45;association&#45;1 (expand) -->
<g id="edge21" class="edge">
<title>[root] meta.count-boundary (EachMode fixup)-&gt;[root] aws_route_table_association.vpc-tf-public-route-table-association-1 (expand)</title>
<path fill="none" stroke="#000000" d="M712.6099,-431.7623C709.7103,-407.201 704.5213,-363.2474 701.1103,-334.3541"/>
<polygon fill="#000000" stroke="#000000" points="704.5469,-333.6103 699.8985,-324.0896 697.5951,-334.431 704.5469,-333.6103"/>
</g>
<!-- [root] meta.count&#45;boundary (EachMode fixup)&#45;&gt;[root] aws_route_table_association.vpc&#45;tf&#45;public&#45;route&#45;table&#45;association&#45;2 (expand) -->
<g id="edge22" class="edge">
<title>[root] meta.count-boundary (EachMode fixup)-&gt;[root] aws_route_table_association.vpc-tf-public-route-table-association-2 (expand)</title>
<path fill="none" stroke="#000000" d="M883.1041,-441.392C1032.9814,-432.4446 1233.3176,-416.8296 1264.7629,-396 1286.3039,-381.7311 1299.1744,-354.6855 1306.2792,-333.9526"/>
<polygon fill="#000000" stroke="#000000" points="1309.6329,-334.9556 1309.3167,-324.3654 1302.9598,-332.8413 1309.6329,-334.9556"/>
</g>
<!-- [root] meta.count&#45;boundary (EachMode fixup)&#45;&gt;[root] output.ec2_instance_publicip -->
<g id="edge23" class="edge">
<title>[root] meta.count-boundary (EachMode fixup)-&gt;[root] output.ec2_instance_publicip</title>
<path fill="none" stroke="#000000" d="M680.8978,-432.2022C662.839,-422.7115 640.4221,-410.9304 621.105,-400.7783"/>
<polygon fill="#000000" stroke="#000000" points="622.6704,-397.6471 612.1901,-396.0931 619.4138,-403.8435 622.6704,-397.6471"/>
</g>
<!-- [root] meta.count&#45;boundary (EachMode fixup)&#45;&gt;[root] output.ec2_publicdns -->
<g id="edge24" class="edge">
<title>[root] meta.count-boundary (EachMode fixup)-&gt;[root] output.ec2_publicdns</title>
<path fill="none" stroke="#000000" d="M641.6549,-433.365C597.4887,-423.2937 539.7945,-410.0992 480.1672,-396.3204"/>
<polygon fill="#000000" stroke="#000000" points="480.7242,-392.8569 470.1928,-394.0142 479.1473,-399.677 480.7242,-392.8569"/>
</g>
<!-- [root] provider[&quot;registry.terraform.io/hashicorp/aws&quot;] (close) -->
<g id="node19" class="node">
<title>[root] provider["registry.terraform.io/hashicorp/aws"] (close)</title>
<ellipse fill="none" stroke="#000000" cx="1008.7629" cy="-378" rx="247.2168" ry="18"/>
<text text-anchor="middle" x="1008.7629" y="-373.8" font-family="Times,serif" font-size="14.00" fill="#000000">[root] provider["registry.terraform.io/hashicorp/aws"] (close)</text>
</g>
<!-- [root] provider[&quot;registry.terraform.io/hashicorp/aws&quot;] (close)&#45;&gt;[root] aws_instance.my&#45;ec2&#45;vm (expand) -->
<g id="edge27" class="edge">
<title>[root] provider["registry.terraform.io/hashicorp/aws"] (close)-&gt;[root] aws_instance.my-ec2-vm (expand)</title>
<path fill="none" stroke="#000000" d="M841.1083,-364.7574C741.8806,-355.9053 613.5782,-342.7026 491.2499,-324.1568"/>
<polygon fill="#000000" stroke="#000000" points="491.7397,-320.6911 481.3254,-322.6383 490.681,-327.6106 491.7397,-320.6911"/>
</g>
<!-- [root] provider[&quot;registry.terraform.io/hashicorp/aws&quot;] (close)&#45;&gt;[root] aws_route.vpc&#45;tf&#45;public&#45;route (expand) -->
<g id="edge28" class="edge">
<title>[root] provider["registry.terraform.io/hashicorp/aws"] (close)-&gt;[root] aws_route.vpc-tf-public-route (expand)</title>
<path fill="none" stroke="#000000" d="M1008.0059,-359.8314C1007.6851,-352.131 1007.3035,-342.9743 1006.947,-334.4166"/>
<polygon fill="#000000" stroke="#000000" points="1010.4435,-334.2589 1006.5302,-324.4133 1003.4496,-334.5503 1010.4435,-334.2589"/>
</g>
<!-- [root] provider[&quot;registry.terraform.io/hashicorp/aws&quot;] (close)&#45;&gt;[root] aws_route_table_association.vpc&#45;tf&#45;public&#45;route&#45;table&#45;association&#45;1 (expand) -->
<g id="edge29" class="edge">
<title>[root] provider["registry.terraform.io/hashicorp/aws"] (close)-&gt;[root] aws_route_table_association.vpc-tf-public-route-table-association-1 (expand)</title>
<path fill="none" stroke="#000000" d="M934.2707,-360.7542C889.5607,-350.4034 832.4547,-337.1827 785.558,-326.3255"/>
<polygon fill="#000000" stroke="#000000" points="786.2456,-322.8922 775.7138,-324.0465 784.6667,-329.7119 786.2456,-322.8922"/>
</g>
<!-- [root] provider[&quot;registry.terraform.io/hashicorp/aws&quot;] (close)&#45;&gt;[root] aws_route_table_association.vpc&#45;tf&#45;public&#45;route&#45;table&#45;association&#45;2 (expand) -->
<g id="edge30" class="edge">
<title>[root] provider["registry.terraform.io/hashicorp/aws"] (close)-&gt;[root] aws_route_table_association.vpc-tf-public-route-table-association-2 (expand)</title>
<path fill="none" stroke="#000000" d="M1081.818,-360.7542C1125.5737,-350.425 1181.4354,-337.238 1227.3729,-326.3937"/>
<polygon fill="#000000" stroke="#000000" points="1228.3876,-329.7505 1237.3159,-324.0465 1226.7793,-322.9377 1228.3876,-329.7505"/>
</g>
<!-- [root] root -->
<g id="node20" class="node">
<title>[root] root</title>
<ellipse fill="none" stroke="#000000" cx="823.7629" cy="-522" rx="50.9823" ry="18"/>
<text text-anchor="middle" x="823.7629" y="-517.8" font-family="Times,serif" font-size="14.00" fill="#000000">[root] root</text>
</g>
<!-- [root] root&#45;&gt;[root] meta.count&#45;boundary (EachMode fixup) -->
<g id="edge32" class="edge">
<title>[root] root-&gt;[root] meta.count-boundary (EachMode fixup)</title>
<path fill="none" stroke="#000000" d="M799.5723,-506.0209C785.1782,-496.5128 766.6482,-484.2728 750.5822,-473.6604"/>
<polygon fill="#000000" stroke="#000000" points="752.2251,-470.551 741.952,-467.9597 748.3669,-476.3918 752.2251,-470.551"/>
</g>
<!-- [root] root&#45;&gt;[root] provider[&quot;registry.terraform.io/hashicorp/aws&quot;] (close) -->
<g id="edge33" class="edge">
<title>[root] root-&gt;[root] provider["registry.terraform.io/hashicorp/aws"] (close)</title>
<path fill="none" stroke="#000000" d="M852.7099,-507.0422C871.1461,-496.9875 895.16,-482.8902 914.7629,-468 940.538,-448.4215 966.9028,-422.5706 985.1253,-403.5989"/>
<polygon fill="#000000" stroke="#000000" points="987.8202,-405.8439 992.1707,-396.1835 982.7454,-401.0224 987.8202,-405.8439"/>
</g>
</g>
</svg>